<?xml version="1.0" encoding="UTF-8" standalone="no"?>
<svg
   xmlns:dc="http://purl.org/dc/elements/1.1/"
   xmlns:cc="http://creativecommons.org/ns#"
   xmlns:rdf="http://www.w3.org/1999/02/22-rdf-syntax-ns#"
   xmlns:svg="http://www.w3.org/2000/svg"
   xmlns="http://www.w3.org/2000/svg"
   xmlns:sodipodi="http://sodipodi.sourceforge.net/DTD/sodipodi-0.dtd"
   xmlns:inkscape="http://www.inkscape.org/namespaces/inkscape"
   version="1.2"
   width="30"
   height="30"
   viewBox="0 0 4.8180011 4.818001"
   id="svg2"
   inkscape:version="0.48.4 r9939"
   sodipodi:docname="breve.svg">
  <metadata
     id="metadata78">
    <rdf:RDF>
      <cc:Work
         rdf:about="">
        <dc:format>image/svg+xml</dc:format>
        <dc:type
           rdf:resource="http://purl.org/dc/dcmitype/StillImage" />
        <dc:title />
      </cc:Work>
    </rdf:RDF>
  </metadata>
  <defs
     id="defs76" />
  <sodipodi:namedview
     pagecolor="#ffffff"
     bordercolor="#666666"
     borderopacity="1"
     objecttolerance="10"
     gridtolerance="10"
     guidetolerance="10"
     inkscape:pageopacity="0"
     inkscape:pageshadow="2"
     inkscape:window-width="1366"
     inkscape:window-height="705"
     id="namedview74"
     showgrid="false"
     inkscape:zoom="1.7940591"
     inkscape:cx="7.4303558"
     inkscape:cy="-78.306754"
     inkscape:window-x="-8"
     inkscape:window-y="-8"
     inkscape:window-maximized="1"
     inkscape:current-layer="svg2" />
  <!-- Page: 1/1 -->
  <path
     d="m 2.4110012,1.8570005 c 0.3799997,0 0.9199997,0.144 0.9839997,0.492 v -0.56 c 0,-0.056 0.044,-0.1 0.1,-0.1 0.056,0 0.1,0.044 0.1,0.1 v 1.24 c 0,0.056 -0.044,0.1 -0.1,0.1 -0.056,0 -0.1,-0.044 -0.1,-0.1 v -0.56 c -0.064,0.348 -0.604,0.492 -0.9839997,0.492 -0.38,0 -0.924,-0.144 -0.988,-0.492 v 0.56 c 0,0.056 -0.044,0.1 -0.1,0.1 -0.056,0 -0.1,-0.044 -0.1,-0.1 v -1.24 c 0,-0.056 0.044,-0.1 0.1,-0.1 0.056,0 0.1,0.044 0.1,0.1 v 0.56 c 0.064,-0.348 0.608,-0.492 0.988,-0.492 z m -0.132,0.104 c -0.2,0 -0.276,0.172 -0.276,0.352 0,0.308 0.228,0.544 0.5359997,0.544 0.2,0 0.276,-0.172 0.276,-0.352 0,-0.308 -0.228,-0.544 -0.5359997,-0.544 z"
     id="path42"
     inkscape:connector-curvature="0"
     style="fill:#f9f6f2;fill-opacity:1" />
</svg>
