<?xml version="1.0" encoding="UTF-8" standalone="no"?>
<svg
   xmlns:dc="http://purl.org/dc/elements/1.1/"
   xmlns:cc="http://creativecommons.org/ns#"
   xmlns:rdf="http://www.w3.org/1999/02/22-rdf-syntax-ns#"
   xmlns:svg="http://www.w3.org/2000/svg"
   xmlns="http://www.w3.org/2000/svg"
   xmlns:sodipodi="http://sodipodi.sourceforge.net/DTD/sodipodi-0.dtd"
   xmlns:inkscape="http://www.inkscape.org/namespaces/inkscape"
   version="1.2"
   width="30"
   height="30"
   viewBox="0 0 4.8180011 4.818001"
   id="svg2"
   inkscape:version="0.48.4 r9939"
   sodipodi:docname="semiquaver.svg">
  <metadata
     id="metadata78">
    <rdf:RDF>
      <cc:Work
         rdf:about="">
        <dc:format>image/svg+xml</dc:format>
        <dc:type
           rdf:resource="http://purl.org/dc/dcmitype/StillImage" />
        <dc:title />
      </cc:Work>
    </rdf:RDF>
  </metadata>
  <defs
     id="defs76" />
  <sodipodi:namedview
     pagecolor="#ffffff"
     bordercolor="#666666"
     borderopacity="1"
     objecttolerance="10"
     gridtolerance="10"
     guidetolerance="10"
     inkscape:pageopacity="0"
     inkscape:pageshadow="2"
     inkscape:window-width="1366"
     inkscape:window-height="705"
     id="namedview74"
     showgrid="false"
     inkscape:zoom="2.5371827"
     inkscape:cx="7.4303558"
     inkscape:cy="-78.306754"
     inkscape:window-x="-8"
     inkscape:window-y="-8"
     inkscape:window-maximized="1"
     inkscape:current-layer="svg2" />
  <!-- Page: 1/1 -->
  <path
     d="m 2.888063,0.42300512 c 0,0.71199998 0.812,1.16799998 0.812,1.87999988 0,0.132 -0.036,0.26 -0.092,0.38 0.072,0.148 0.116,0.3000007 0.116,0.4680007 0,0.252 -0.064,0.5 -0.168,0.732 -0.02,0.032 -0.048,0.048 -0.076,0.048 -0.052,0 -0.104,-0.044 -0.092,-0.108 0.104,-0.208 0.168,-0.44 0.168,-0.672 0,-0.3880007 -0.38,-0.7640007 -0.668,-1.0280007 v 0.3 h -0.064 V 0.42300512 h 0.064 z m 0.612,2.06799988 c 0.02,-0.06 0.028,-0.124 0.028,-0.188 0,-0.384 -0.364,-0.7599999 -0.64,-1.0279999 0,0.4719999 0.364,0.8239999 0.612,1.2159999 z"
     id="path44"
     inkscape:connector-curvature="0"
     style="fill:#776e65;fill-opacity:1" />
  <path
     d="m 2.451863,3.3310057 c 0.224,0 0.436,0.116 0.436,0.364 0,0.288 -0.224,0.484 -0.412,0.596 -0.144,0.084 -0.304,0.144 -0.468,0.144 -0.224,0 -0.436,-0.116 -0.436,-0.364 0,-0.288 0.224,-0.484 0.412,-0.596 0.144,-0.084 0.304,-0.144 0.468,-0.144 z"
     id="path50"
     inkscape:connector-curvature="0"
     style="fill:#776e65;fill-opacity:1" />
  <rect
     x="2.758059"
     y="0.38299531"
     width="0.13"
     height="3.3122001"
     ry="0.039999999"
     id="rect68"
     style="fill:#776e65;fill-opacity:1" />
</svg>
